<svg width="18" height="15" viewBox="0 0 18 15" fill="none" xmlns="http://www.w3.org/2000/svg">
<path d="M15.4958 2.5733C16.2429 2.12671 16.8018 1.4235 17.0683 0.59497C16.3664 1.01147 15.5984 1.30487 14.7975 1.46247C13.6871 0.28791 11.9279 0.00207518 10.5028 0.764684C9.07773 1.52729 8.33958 3.14954 8.70083 4.72497C5.8255 4.58061 3.14663 3.2224 1.33083 0.988304C0.383192 2.62282 0.867453 4.71229 2.43749 5.7633C1.86975 5.74505 1.3146 5.59134 0.818326 5.31497C0.818326 5.32997 0.818326 5.34497 0.818326 5.35997C0.818654 7.0626 2.01864 8.5292 3.68749 8.86664C3.16088 9.00991 2.6085 9.031 2.07249 8.9283C2.54183 10.3844 3.88379 11.3819 5.41333 11.4116C4.14652 12.4059 2.58206 12.9451 0.971659 12.9425C0.686218 12.9429 0.401001 12.9265 0.117493 12.8933C1.75282 13.9442 3.65613 14.5019 5.59999 14.5C8.30437 14.5185 10.9034 13.4524 12.8156 11.54C14.7278 9.62758 15.7938 7.02851 15.775 4.32414C15.775 4.16914 15.7714 4.01497 15.7642 3.86164C16.4645 3.35547 17.069 2.72843 17.5492 2.00997C16.8967 2.29919 16.2046 2.48907 15.4958 2.5733Z" fill="#9A41FE"/>
</svg>
