<svg width="76" height="89" viewBox="0 0 76 89" fill="none" xmlns="http://www.w3.org/2000/svg">
<path d="M14.6667 23.3333C14.6667 10.4467 25.1134 0 38.0001 0C50.8867 0 61.3334 10.4467 61.3334 23.3333C61.3334 36.22 50.8867 46.6667 38.0001 46.6667C25.1134 46.6667 14.6667 36.22 14.6667 23.3333ZM38.0001 37.3333C45.7321 37.3333 52.0001 31.0653 52.0001 23.3333C52.0001 15.6013 45.7321 9.33333 38.0001 9.33333C30.2681 9.33333 24.0001 15.6013 24.0001 23.3333C24.0001 31.0653 30.2681 37.3333 38.0001 37.3333Z" fill="#F7F7FC"/>
<path d="M11.6014 62.268C4.60007 69.2694 0.666748 78.7652 0.666748 88.6667H10.0001C10.0001 81.2406 12.9501 74.1187 18.2011 68.8677C23.4521 63.6167 30.574 60.6667 38.0001 60.6667C45.4261 60.6667 52.5481 63.6167 57.7991 68.8677C63.0501 74.1187 66.0001 81.2406 66.0001 88.6667H75.3334C75.3334 78.7652 71.4001 69.2694 64.3987 62.268C57.3974 55.2667 47.9015 51.3333 38.0001 51.3333C28.0987 51.3333 18.6028 55.2667 11.6014 62.268Z" fill="#F7F7FC"/>
</svg>
