<svg width="76" height="89" viewBox="0 0 76 89" fill="none" xmlns="http://www.w3.org/2000/svg">
<path d="M14.6667 23.3333C14.6667 10.4467 25.1134 0 38 0C50.8866 0 61.3333 10.4467 61.3333 23.3333C61.3333 36.22 50.8866 46.6667 38 46.6667C25.1134 46.6667 14.6667 36.22 14.6667 23.3333ZM38 37.3333C45.732 37.3333 52 31.0653 52 23.3333C52 15.6013 45.732 9.33333 38 9.33333C30.268 9.33333 24 15.6013 24 23.3333C24 31.0653 30.268 37.3333 38 37.3333Z" fill="#29183B"/>
<path d="M11.6014 62.268C4.59999 69.2694 0.666672 78.7652 0.666672 88.6667H10C10 81.2406 12.95 74.1187 18.201 68.8677C23.452 63.6167 30.5739 60.6667 38 60.6667C45.4261 60.6667 52.548 63.6167 57.799 68.8677C63.05 74.1187 66 81.2406 66 88.6667H75.3333C75.3333 78.7652 71.4 69.2694 64.3987 62.268C57.3973 55.2667 47.9014 51.3333 38 51.3333C28.0986 51.3333 18.6027 55.2667 11.6014 62.268Z" fill="#29183B"/>
</svg>
