<svg width="18" height="18" viewBox="0 0 18 18" fill="none" xmlns="http://www.w3.org/2000/svg">
<path d="M0.501663 9.00162C0.502633 13.1011 3.48366 16.5916 7.5325 17.2341V11.41H5.41833V9.00162H7.535V7.16829C7.44037 6.29957 7.7371 5.43378 8.3447 4.80573C8.9523 4.17768 9.80779 3.85247 10.6792 3.91829C11.3046 3.92839 11.9285 3.98409 12.5458 4.08496V6.13412H11.4925C11.1299 6.08663 10.7653 6.20639 10.5015 6.45968C10.2377 6.71297 10.1031 7.07236 10.1358 7.43662V9.00162H12.445L12.0758 11.4108H10.1358V17.2341C14.5146 16.5421 17.5851 12.5431 17.1229 8.13418C16.6608 3.72526 12.8277 0.449896 8.40068 0.680938C3.97363 0.911979 0.502367 4.56855 0.501663 9.00162Z" fill="#9A41FE"/>
</svg>
