<svg width="16" height="16" viewBox="0 0 16 16" fill="none" xmlns="http://www.w3.org/2000/svg">
<path d="M8.99999 15.5H5.66666V5.5H8.99999V7.16667C9.71052 6.26271 10.788 5.72381 11.9375 5.6975C14.0047 5.70898 15.6727 7.39115 15.6667 9.45833V15.5H12.3333V9.875C12.2 8.94386 11.4015 8.25298 10.4608 8.255C10.0494 8.26801 9.66103 8.44815 9.38536 8.75385C9.10969 9.05956 8.97053 9.46441 8.99999 9.875V15.5ZM3.99999 15.5H0.66666V5.5H3.99999V15.5ZM2.33333 3.83333C1.41285 3.83333 0.66666 3.08714 0.66666 2.16667C0.66666 1.24619 1.41285 0.5 2.33333 0.5C3.2538 0.5 3.99999 1.24619 3.99999 2.16667C3.99999 2.60869 3.8244 3.03262 3.51184 3.34518C3.19928 3.65774 2.77535 3.83333 2.33333 3.83333Z" fill="#9A41FE"/>
</svg>
