<svg width="15" height="16" viewBox="0 0 15 16" fill="none" xmlns="http://www.w3.org/2000/svg">
<path d="M7.50165 15.5342C5.45165 15.5342 5.20998 15.5233 4.40998 15.4883C3.78612 15.4678 3.17034 15.341 2.58915 15.1133C1.58357 14.722 0.788432 13.9265 0.397481 12.9208C0.17857 12.3375 0.0604962 11.7212 0.0483146 11.0983C0.00164795 10.3 0.00164795 10.0383 0.00164795 8.00415C0.00164795 5.94832 0.0124813 5.70832 0.0483146 4.91248C0.0607626 4.29042 0.178832 3.67499 0.397481 3.09248C0.788007 2.08543 1.58444 1.28929 2.59165 0.89915C3.17385 0.679319 3.78944 0.560937 4.41165 0.54915C5.20748 0.50415 5.46915 0.50415 7.50165 0.50415C9.56831 0.50415 9.80581 0.514984 10.5933 0.54915C11.2171 0.561039 11.8344 0.679408 12.4183 0.89915C13.4252 1.28974 14.2215 2.08571 14.6125 3.09248C14.8351 3.68348 14.9538 4.30853 14.9633 4.93998C15.01 5.73832 15.01 5.99915 15.01 8.03248C15.01 10.0658 14.9983 10.3325 14.9633 11.1217C14.9509 11.7452 14.8326 12.362 14.6133 12.9458C14.2214 13.9522 13.425 14.748 12.4183 15.1392C11.8352 15.3576 11.2192 15.4757 10.5966 15.4883C9.80081 15.5342 9.53998 15.5342 7.50165 15.5342ZM7.47331 1.82332C5.43498 1.82332 5.22331 1.83332 4.42748 1.86915C3.95247 1.87544 3.48205 1.9631 3.03665 2.12832C2.37894 2.37999 1.8585 2.89831 1.60415 3.55498C1.43766 4.00523 1.34999 4.4808 1.34498 4.96082C1.30081 5.76832 1.30081 5.97998 1.30081 8.00415C1.30081 10.0042 1.30831 10.2467 1.34498 11.0492C1.35244 11.5243 1.44006 11.9948 1.60415 12.4408C1.85888 13.0971 2.37923 13.615 3.03665 13.8667C3.48174 14.033 3.95236 14.1207 4.42748 14.1258C5.23415 14.1725 5.44665 14.1725 7.47331 14.1725C9.51748 14.1725 9.72915 14.1625 10.5183 14.1258C10.9936 14.12 11.4644 14.0324 11.91 13.8667C12.5637 13.6128 13.0808 13.0961 13.335 12.4425C13.5011 11.9919 13.5888 11.5161 13.5941 11.0358H13.6033C13.6391 10.2391 13.6391 10.0267 13.6391 7.99082C13.6391 5.95498 13.63 5.74082 13.5941 4.94498C13.5867 4.47036 13.4991 4.00041 13.335 3.55498C13.0813 2.90046 12.5642 2.38273 11.91 2.12832C11.4645 1.96227 10.9937 1.87458 10.5183 1.86915C9.71248 1.82332 9.50165 1.82332 7.47331 1.82332ZM7.50165 11.8533C5.94331 11.8543 4.53783 10.9164 3.9407 9.47703C3.34357 8.03763 3.6724 6.38026 4.77384 5.27787C5.87528 4.17548 7.53237 3.84521 8.97228 4.44109C10.4122 5.03698 11.3513 6.44164 11.3516 7.99998C11.3494 10.1259 9.62753 11.8492 7.50165 11.8533ZM7.50165 5.49832C6.12094 5.49832 5.00165 6.61761 5.00165 7.99832C5.00165 9.37903 6.12094 10.4983 7.50165 10.4983C8.88236 10.4983 10.0016 9.37903 10.0016 7.99832C9.99844 6.61894 8.88103 5.50152 7.50165 5.49832ZM11.5016 4.90415C11.0062 4.90231 10.6057 4.49964 10.6066 4.00416C10.6076 3.50867 11.0095 3.10749 11.505 3.10749C12.0005 3.10749 12.4024 3.50867 12.4033 4.00415C12.4035 4.2432 12.3086 4.4725 12.1394 4.64138C11.9702 4.81026 11.7407 4.90481 11.5016 4.90415Z" fill="#9A41FE"/>
</svg>
